<?xml version="1.0" encoding="UTF-8"?> <svg xmlns="http://www.w3.org/2000/svg" xmlns:xlink="http://www.w3.org/1999/xlink" width="3352" height="2123" xml:space="preserve" overflow="hidden"><defs><clipPath id="clip0"><rect x="1344" y="324" width="3352" height="2123"></rect></clipPath></defs><g clip-path="url(#clip0)" transform="translate(-1344 -324)"><rect x="1345" y="325" width="3349" height="2120" fill="#FFFFFF"></rect><g><path d="M1575.5 2071.57 4586.5 2071.57M1575.5 2040.57 4586.5 2040.57M1575.5 2008.57 4586.5 2008.57M1575.5 1977.56 4586.5 1977.56M1575.5 1914.56 4586.5 1914.56M1575.5 1882.56 4586.5 1882.56M1575.5 1851.56 4586.5 1851.56M1575.5 1820.56 4586.5 1820.56M1575.5 1757.56 4586.5 1757.56M1575.5 1725.56 4586.5 1725.56M1575.5 1694.56 4586.5 1694.56M1575.5 1662.55 4586.5 1662.55M1575.5 1600.55 4586.5 1600.55M1575.5 1568.55 4586.5 1568.55M1575.5 1537.55 4586.5 1537.55M1575.5 1505.55 4586.5 1505.55M1575.5 1442.55 4586.5 1442.55M1575.5 1411.55 4586.5 1411.55M1575.5 1380.55 4586.5 1380.55M1575.5 1348.54 4586.5 1348.54M1575.5 1285.54 4586.5 1285.54M1575.5 1254.54 4586.5 1254.54M1575.5 1222.54 4586.5 1222.54M1575.5 1191.54 4586.5 1191.54M1575.5 1128.54 4586.5 1128.54M1575.5 1097.54 4586.5 1097.54M1575.5 1065.54 4586.5 1065.54M1575.5 1034.53 4586.5 1034.53M1575.5 971.532 4586.5 971.532M1575.5 939.531 4586.5 939.531M1575.5 908.53 4586.5 908.53M1575.5 877.529 4586.5 877.529M1575.5 814.527 4586.5 814.527M1575.5 782.526 4586.5 782.526M1575.5 751.525 4586.5 751.525M1575.5 719.524 4586.5 719.524M1575.5 657.522 4586.5 657.522M1575.5 625.521 4586.5 625.521M1575.5 594.52 4586.5 594.52M1575.5 562.519 4586.5 562.519" stroke="#F2F2F2" stroke-width="3.4375" stroke-linejoin="round" stroke-miterlimit="10" fill="none"></path></g><g><path d="M1575.5 1945.56 4586.5 1945.56M1575.5 1788.56 4586.5 1788.56M1575.5 1631.55 4586.5 1631.55M1575.5 1474.55 4586.5 1474.55M1575.5 1317.54 4586.5 1317.54M1575.5 1160.54 4586.5 1160.54M1575.5 1002.53 4586.5 1002.53M1575.5 845.528 4586.5 845.528M1575.5 688.523 4586.5 688.523M1575.5 531.5 4586.5 531.5" stroke="#D9D9D9" stroke-width="3.4375" stroke-linejoin="round" stroke-miterlimit="10" fill="none"></path></g><g><path d="M1575.5 2103.5 4586.5 2103.5" stroke="#D9D9D9" stroke-width="3.4375" stroke-linejoin="round" stroke-miterlimit="10" fill="none" fill-rule="evenodd"></path></g><g><path d="M1575 682 1849.06 1204.04 2122.07 1381.05 2396.08 1622.05 2670.09 1751.06 2944.1 1855.06 3217 1870" stroke="#156082" stroke-width="13.75" stroke-linecap="round" stroke-linejoin="round" stroke-miterlimit="10" fill="none"></path></g><g><path d="M1593.75 683C1593.75 693.217 1585.47 701.499 1575.25 701.499 1565.03 701.499 1556.75 693.217 1556.75 683 1556.75 672.783 1565.03 664.5 1575.25 664.5 1585.47 664.5 1593.75 672.783 1593.75 683Z" fill="#156082"></path><path d="M1867.75 1205C1867.75 1215.22 1859.47 1223.5 1849.25 1223.5 1839.03 1223.5 1830.75 1215.22 1830.75 1205 1830.75 1194.78 1839.03 1186.5 1849.25 1186.5 1859.47 1186.5 1867.75 1194.78 1867.75 1205Z" fill="#156082"></path><path d="M2140.75 1382C2140.75 1392.22 2132.47 1400.5 2122.25 1400.5 2112.03 1400.5 2103.75 1392.22 2103.75 1382 2103.75 1371.78 2112.03 1363.5 2122.25 1363.5 2132.47 1363.5 2140.75 1371.78 2140.75 1382Z" fill="#156082"></path><path d="M2414.75 1623C2414.75 1633.22 2406.47 1641.5 2396.25 1641.5 2386.03 1641.5 2377.75 1633.22 2377.75 1623 2377.75 1612.78 2386.03 1604.5 2396.25 1604.5 2406.47 1604.5 2414.75 1612.78 2414.75 1623Z" fill="#156082"></path><path d="M2688.75 1752C2688.75 1762.22 2680.47 1770.5 2670.25 1770.5 2660.03 1770.5 2651.75 1762.22 2651.75 1752 2651.75 1741.78 2660.03 1733.5 2670.25 1733.5 2680.47 1733.5 2688.75 1741.78 2688.75 1752Z" fill="#156082"></path><path d="M2962.75 1856C2962.75 1866.22 2954.47 1874.5 2944.25 1874.5 2934.03 1874.5 2925.75 1866.22 2925.75 1856 2925.75 1845.78 2934.03 1837.5 2944.25 1837.5 2954.47 1837.5 2962.75 1845.78 2962.75 1856Z" fill="#156082"></path><path d="M3235.75 1871C3235.75 1881.22 3227.47 1889.5 3217.25 1889.5 3207.03 1889.5 3198.75 1881.22 3198.75 1871 3198.75 1860.78 3207.03 1852.5 3217.25 1852.5 3227.47 1852.5 3235.75 1860.78 3235.75 1871Z" fill="#156082"></path></g><g><path d="M1575 682 1849.06 846.028 2122.07 905.03 2396.08 997.033 2670.09 1073.04 2944.1 1176.04 3217.11 1301.04 3491.11 1337.04 3765.12 1468.05 4038.13 1599.05 4312.14 1730.06 4586 1835" stroke="#E97132" stroke-width="13.75" stroke-linecap="round" stroke-linejoin="round" stroke-miterlimit="10" fill="none"></path></g><g><path d="M1593.75 683C1593.75 693.217 1585.47 701.499 1575.25 701.499 1565.03 701.499 1556.75 693.217 1556.75 683 1556.75 672.783 1565.03 664.5 1575.25 664.5 1585.47 664.5 1593.75 672.783 1593.75 683Z" fill="#E97132"></path><path d="M1867.75 847C1867.75 857.217 1859.47 865.499 1849.25 865.499 1839.03 865.499 1830.75 857.217 1830.75 847 1830.75 836.783 1839.03 828.5 1849.25 828.5 1859.47 828.5 1867.75 836.783 1867.75 847Z" fill="#E97132"></path><path d="M2140.75 905.999C2140.75 916.216 2132.47 924.499 2122.25 924.499 2112.03 924.499 2103.75 916.216 2103.75 905.999 2103.75 895.782 2112.03 887.5 2122.25 887.5 2132.47 887.5 2140.75 895.782 2140.75 905.999Z" fill="#E97132"></path><path d="M2414.75 998C2414.75 1008.22 2406.47 1016.5 2396.25 1016.5 2386.03 1016.5 2377.75 1008.22 2377.75 998 2377.75 987.782 2386.03 979.5 2396.25 979.5 2406.47 979.5 2414.75 987.782 2414.75 998Z" fill="#E97132"></path><path d="M2688.75 1074C2688.75 1084.22 2680.47 1092.5 2670.25 1092.5 2660.03 1092.5 2651.75 1084.22 2651.75 1074 2651.75 1063.78 2660.03 1055.5 2670.25 1055.5 2680.47 1055.5 2688.75 1063.78 2688.75 1074Z" fill="#E97132"></path><path d="M2962.75 1177C2962.75 1187.22 2954.47 1195.5 2944.25 1195.5 2934.03 1195.5 2925.75 1187.22 2925.75 1177 2925.75 1166.78 2934.03 1158.5 2944.25 1158.5 2954.47 1158.5 2962.75 1166.78 2962.75 1177Z" fill="#E97132"></path><path d="M3235.75 1303C3235.75 1313.22 3227.47 1321.5 3217.25 1321.5 3207.03 1321.5 3198.75 1313.22 3198.75 1303 3198.75 1292.78 3207.03 1284.5 3217.25 1284.5 3227.47 1284.5 3235.75 1292.78 3235.75 1303Z" fill="#E97132"></path><path d="M3509.75 1338C3509.75 1348.22 3501.47 1356.5 3491.25 1356.5 3481.03 1356.5 3472.75 1348.22 3472.75 1338 3472.75 1327.78 3481.03 1319.5 3491.25 1319.5 3501.47 1319.5 3509.75 1327.78 3509.75 1338Z" fill="#E97132"></path><path d="M3783.75 1469C3783.75 1479.22 3775.47 1487.5 3765.25 1487.5 3755.03 1487.5 3746.75 1479.22 3746.75 1469 3746.75 1458.78 3755.03 1450.5 3765.25 1450.5 3775.47 1450.5 3783.75 1458.78 3783.75 1469Z" fill="#E97132"></path><path d="M4057.75 1600C4057.75 1610.22 4049.47 1618.5 4039.25 1618.5 4029.03 1618.5 4020.75 1610.22 4020.75 1600 4020.75 1589.78 4029.03 1581.5 4039.25 1581.5 4049.47 1581.5 4057.75 1589.78 4057.75 1600Z" fill="#E97132"></path><path d="M4330.75 1731C4330.75 1741.22 4322.47 1749.5 4312.25 1749.5 4302.03 1749.5 4293.75 1741.22 4293.75 1731 4293.75 1720.78 4302.03 1712.5 4312.25 1712.5 4322.47 1712.5 4330.75 1720.78 4330.75 1731Z" fill="#E97132"></path><path d="M4604.75 1836C4604.75 1846.22 4596.47 1854.5 4586.25 1854.5 4576.03 1854.5 4567.75 1846.22 4567.75 1836 4567.75 1825.78 4576.03 1817.5 4586.25 1817.5 4596.47 1817.5 4604.75 1825.78 4604.75 1836Z" fill="#E97132"></path></g><g><text fill="#595959" font-family="Aptos Narrow,Aptos Narrow_MSFontService,sans-serif" font-weight="700" font-stretch="semi-condensed" font-size="50" transform="matrix(1 0 0 1 1502.9 2117)">0</text></g><g><text fill="#595959" font-family="Aptos Narrow,Aptos Narrow_MSFontService,sans-serif" font-weight="700" font-stretch="semi-condensed" font-size="50" transform="matrix(1 0 0 1 1502.9 1959)">5</text></g><g><text fill="#595959" font-family="Aptos Narrow,Aptos Narrow_MSFontService,sans-serif" font-weight="700" font-stretch="semi-condensed" font-size="50" transform="matrix(1 0 0 1 1477.35 1802)">10</text></g><g><text fill="#595959" font-family="Aptos Narrow,Aptos Narrow_MSFontService,sans-serif" font-weight="700" font-stretch="semi-condensed" font-size="50" transform="matrix(1 0 0 1 1477.35 1645)">15</text></g><g><text fill="#595959" font-family="Aptos Narrow,Aptos Narrow_MSFontService,sans-serif" font-weight="700" font-stretch="semi-condensed" font-size="50" transform="matrix(1 0 0 1 1477.35 1488)">20</text></g><g><text fill="#595959" font-family="Aptos Narrow,Aptos Narrow_MSFontService,sans-serif" font-weight="700" font-stretch="semi-condensed" font-size="50" transform="matrix(1 0 0 1 1477.35 1331)">25</text></g><g><text fill="#595959" font-family="Aptos Narrow,Aptos Narrow_MSFontService,sans-serif" font-weight="700" font-stretch="semi-condensed" font-size="50" transform="matrix(1 0 0 1 1477.35 1173)">30</text></g><g><text fill="#595959" font-family="Aptos Narrow,Aptos Narrow_MSFontService,sans-serif" font-weight="700" font-stretch="semi-condensed" font-size="50" transform="matrix(1 0 0 1 1477.35 1016)">35</text></g><g><text fill="#595959" font-family="Aptos Narrow,Aptos Narrow_MSFontService,sans-serif" font-weight="700" font-stretch="semi-condensed" font-size="50" transform="matrix(1 0 0 1 1477.35 859)">40</text></g><g><text fill="#595959" font-family="Aptos Narrow,Aptos Narrow_MSFontService,sans-serif" font-weight="700" font-stretch="semi-condensed" font-size="50" transform="matrix(1 0 0 1 1477.35 702)">45</text></g><g><text fill="#595959" font-family="Aptos Narrow,Aptos Narrow_MSFontService,sans-serif" font-weight="700" font-stretch="semi-condensed" font-size="50" transform="matrix(1 0 0 1 1477.35 545)">50</text></g><g><text fill="#595959" font-family="Aptos Narrow,Aptos Narrow_MSFontService,sans-serif" font-weight="700" font-stretch="semi-condensed" font-size="50" transform="matrix(1 0 0 1 1562.23 2182)">0</text></g><g><text fill="#595959" font-family="Aptos Narrow,Aptos Narrow_MSFontService,sans-serif" font-weight="700" font-stretch="semi-condensed" font-size="50" transform="matrix(1 0 0 1 1803.68 2182)">1,30</text></g><g><text fill="#595959" font-family="Aptos Narrow,Aptos Narrow_MSFontService,sans-serif" font-weight="700" font-stretch="semi-condensed" font-size="50" transform="matrix(1 0 0 1 2077.41 2182)">2,00</text></g><g><text fill="#595959" font-family="Aptos Narrow,Aptos Narrow_MSFontService,sans-serif" font-weight="700" font-stretch="semi-condensed" font-size="50" transform="matrix(1 0 0 1 2351.13 2182)">3,00</text></g><g><text fill="#595959" font-family="Aptos Narrow,Aptos Narrow_MSFontService,sans-serif" font-weight="700" font-stretch="semi-condensed" font-size="50" transform="matrix(1 0 0 1 2624.86 2182)">4,00</text></g><g><text fill="#595959" font-family="Aptos Narrow,Aptos Narrow_MSFontService,sans-serif" font-weight="700" font-stretch="semi-condensed" font-size="50" transform="matrix(1 0 0 1 2898.59 2182)">5,00</text></g><g><text fill="#595959" font-family="Aptos Narrow,Aptos Narrow_MSFontService,sans-serif" font-weight="700" font-stretch="semi-condensed" font-size="50" transform="matrix(1 0 0 1 3172.31 2182)">5,30</text></g><g><text fill="#595959" font-family="Aptos Narrow,Aptos Narrow_MSFontService,sans-serif" font-weight="700" font-stretch="semi-condensed" font-size="50" transform="matrix(1 0 0 1 3446.04 2182)">7,00</text></g><g><text fill="#595959" font-family="Aptos Narrow,Aptos Narrow_MSFontService,sans-serif" font-weight="700" font-stretch="semi-condensed" font-size="50" transform="matrix(1 0 0 1 3719.77 2182)">9,15</text></g><g><text fill="#595959" font-family="Aptos Narrow,Aptos Narrow_MSFontService,sans-serif" font-weight="700" font-stretch="semi-condensed" font-size="50" transform="matrix(1 0 0 1 3980.72 2182)">11,15</text></g><g><text fill="#595959" font-family="Aptos Narrow,Aptos Narrow_MSFontService,sans-serif" font-weight="700" font-stretch="semi-condensed" font-size="50" transform="matrix(1 0 0 1 4254.45 2182)">13,00</text></g><g><text fill="#595959" font-family="Aptos Narrow,Aptos Narrow_MSFontService,sans-serif" font-weight="700" font-stretch="semi-condensed" font-size="50" transform="matrix(1 0 0 1 4528.17 2182)">16,30</text></g><g><text fill="#595959" font-family="Aptos Narrow,Aptos Narrow_MSFontService,sans-serif" font-weight="400" font-stretch="semi-condensed" font-size="50" transform="matrix(6.12323e-17 -1 1 6.12323e-17 1449.04 1493)">ВЛАЖНОСТЬ (%)</text></g><g><text fill="#595959" font-family="Aptos Narrow,Aptos Narrow_MSFontService,sans-serif" font-weight="400" font-stretch="semi-condensed" font-size="50" transform="matrix(1 0 0 1 2925.94 2257)">ВРЕМЯ (ЧАСЫ)</text></g><g><text fill="#595959" font-family="Aptos Display,Aptos Display_MSFontService,sans-serif" font-weight="400" font-size="92" transform="matrix(1 0 0 1 2523.93 445)">Динамика сушки арахиса</text></g><g><path d="M2531 2373 2619 2373" stroke="#156082" stroke-width="13.75" stroke-linecap="round" stroke-linejoin="round" stroke-miterlimit="10" fill="none" fill-rule="evenodd"></path></g><g><path d="M2588 2372.5C2588 2379.96 2581.96 2386 2574.5 2386 2567.04 2386 2561 2379.96 2561 2372.5 2561 2365.04 2567.04 2359 2574.5 2359 2581.96 2359 2588 2365.04 2588 2372.5Z" fill="#156082"></path></g><g><text fill="#595959" font-family="Aptos Narrow,Aptos Narrow_MSFontService,sans-serif" font-weight="400" font-stretch="semi-condensed" font-size="50" transform="matrix(1 0 0 1 2628.41 2386)">“Восток </text></g><g><text fill="#595959" font-family="Aptos Narrow,Aptos Narrow_MSFontService,sans-serif" font-weight="400" font-stretch="semi-condensed" font-size="50" transform="matrix(1 0 0 1 2803.77 2386)">-</text></g><g><text fill="#595959" font-family="Aptos Narrow,Aptos Narrow_MSFontService,sans-serif" font-weight="400" font-stretch="semi-condensed" font-size="50" transform="matrix(1 0 0 1 2828.63 2386)">InfraR”</text></g><g><path d="M3046 2373 3134 2373" stroke="#E97132" stroke-width="13.75" stroke-linecap="round" stroke-linejoin="round" stroke-miterlimit="10" fill="none" fill-rule="evenodd"></path></g><g><path d="M3102 2372.5C3102 2379.96 3095.96 2386 3088.5 2386 3081.04 2386 3075 2379.96 3075 2372.5 3075 2365.04 3081.04 2359 3088.5 2359 3095.96 2359 3102 2365.04 3102 2372.5Z" fill="#E97132"></path></g><g><text fill="#595959" font-family="Aptos Narrow,Aptos Narrow_MSFontService,sans-serif" font-weight="400" font-stretch="semi-condensed" font-size="50" transform="matrix(1 0 0 1 3143.02 2386)">Обычная сушилка</text></g><rect x="1345.5" y="325.5" width="3349" height="2120" stroke="#D9D9D9" stroke-width="3.4375" stroke-linejoin="round" stroke-miterlimit="10" fill="none"></rect></g></svg> 