<?xml version="1.0" encoding="UTF-8"?> <svg xmlns="http://www.w3.org/2000/svg" xmlns:xlink="http://www.w3.org/1999/xlink" xmlns:xodm="http://www.corel.com/coreldraw/odm/2003" xml:space="preserve" width="49mm" height="49mm" version="1.1" style="shape-rendering:geometricPrecision; text-rendering:geometricPrecision; image-rendering:optimizeQuality; fill-rule:evenodd; clip-rule:evenodd" viewBox="0 0 4900 4900"> <defs> <style type="text/css"> .fil0 {fill:#848688;fill-rule:nonzero} .fil1 {fill:#201E1E;fill-rule:nonzero} </style> </defs> <g id="Слой_x0020_1"> <metadata id="CorelCorpID_0Corel-Layer"></metadata> <g id="_1932419349552"> <path class="fil0" d="M1442.2 4140.92c10.42,0 20.96,2.65 30.58,8.16 143.06,81.87 295.95,145.31 454.53,188.53 16.17,4.41 29.87,15.15 37.95,29.78l178.32 321.2c8.08,14.57 22.94,24.4 39.7,26.3 85.73,9.68 173.07,14.56 259.6,14.56 86.54,0 173.88,-4.88 259.61,-14.56 16.76,-1.9 31.62,-11.73 39.7,-26.3l178.32 -321.2c8.08,-14.63 21.78,-25.37 37.95,-29.78 158.57,-43.22 311.47,-106.66 454.53,-188.53 17.34,-9.95 37.8,-10.63 55.14,-3.28l345.71 98.89c15.95,4.57 33.36,1.04 46.54,-9.44 67.24,-53.51 132.5,-111.8 193.98,-173.25 61.48,-61.48 119.75,-126.74 173.22,-193.93 10.49,-13.19 14.06,-30.61 9.47,-46.61l-99.29 -347.15c-6.84,-17.02 -6.04,-36.75 3.65,-53.68 81.87,-143.06 145.31,-295.98 188.58,-454.52 4.37,-16.15 15.15,-29.84 29.8,-37.98l321.15 -178.32c14.57,-8.08 24.41,-22.92 26.3,-39.67 9.69,-85.73 14.57,-173.09 14.57,-259.61 0,-86.51 -4.88,-173.85 -14.57,-259.6 -1.89,-16.76 -11.73,-31.6 -26.3,-39.68l-317.88 -176.46c-15.8,-7.55 -28.26,-21.67 -33.14,-39.66 -43.34,-158.93 -106.71,-311.91 -188.51,-454.69 -9.91,-17.38 -10.64,-37.78 -3.21,-55.16l98.85 -345.7c4.59,-15.98 1.02,-33.4 -9.47,-46.56 -53.47,-67.21 -111.74,-132.47 -173.22,-193.98 -61.48,-61.46 -126.74,-119.75 -193.98,-173.21 -13.18,-10.51 -30.59,-14.04 -46.54,-9.46l-343.23 98.17c-17.85,8.39 -39.19,8.1 -57.33,-2.28 -143.42,-82.11 -296.46,-145.62 -454.82,-188.76 -16.17,-4.4 -29.87,-15.14 -37.95,-29.78l-178.32 -321.25c-8.08,-14.57 -22.94,-24.4 -39.7,-26.3 -85.73,-9.68 -173.07,-14.56 -259.61,-14.56 -86.53,0 -173.87,4.88 -259.6,14.56 -16.76,1.9 -31.62,11.73 -39.7,26.3l-178.32 321.25c-8.08,14.64 -21.78,25.38 -37.95,29.78 -158.36,43.14 -311.4,106.65 -454.8,188.76 -18.14,10.37 -39.55,10.67 -57.39,2.28l-343.18 -98.17c-16,-4.58 -33.41,-1.04 -46.57,9.44 -67.19,53.48 -132.45,111.77 -193.97,173.26 -61.45,61.48 -119.74,126.74 -173.22,193.93 -10.5,13.18 -14.02,30.6 -9.45,46.6l99.29 347.15c6.84,17.02 6.01,36.75 -3.69,53.69 -81.76,142.78 -145.17,295.76 -188.48,454.69 -4.97,18.26 -17.7,32.57 -33.84,40.05l-317.19 176.07c-14.55,8.08 -24.38,22.92 -26.28,39.68 -9.69,85.73 -14.61,173.08 -14.61,259.6 0,86.52 4.92,173.88 14.61,259.65 1.9,16.71 11.73,31.55 26.29,39.63l321.19 178.32c14.64,8.14 25.38,21.83 29.78,37.98 43.23,158.54 106.66,311.46 188.53,454.52 9.95,17.38 10.64,37.77 3.28,55.14l-98.89 345.71c-4.57,15.98 -1.04,33.4 9.44,46.56 53.51,67.22 111.8,132.48 173.26,193.97 61.47,61.44 126.73,119.73 193.94,173.23 13.17,10.48 30.59,14.03 46.59,9.45l347.15 -99.3c7.34,-2.95 15.19,-4.47 23.1,-4.47zm1000.68 712.8c-91.19,0 -183.19,-5.17 -273.59,-15.37 -56.6,-6.48 -106.78,-39.84 -134.32,-89.45l-165.71 -298.5c-151,-43.27 -296.97,-103.77 -434.65,-180.2l-328.5 93.95c-54.55,15.59 -113.67,3.74 -158.16,-31.71 -70.83,-56.38 -139.6,-117.8 -204.39,-182.56 -64.78,-64.81 -126.2,-133.59 -182.59,-204.43 -35.44,-44.47 -47.3,-103.59 -31.72,-158.13l93.97 -328.52c-76.43,-137.67 -136.94,-283.63 -180.2,-434.63l-298.5 -165.73c-49.58,-27.52 -83.01,-77.72 -89.44,-134.28 -10.22,-90.41 -15.41,-182.45 -15.41,-273.63 0,-91.17 5.19,-183.22 15.41,-273.6 6.43,-56.59 39.86,-106.79 89.43,-134.31l298.62 -165.77c43.3,-151.23 103.79,-297.21 180.09,-434.6l-93.96 -328.5c-15.59,-54.54 -3.73,-113.66 31.72,-158.15 56.37,-70.82 117.79,-139.59 182.55,-204.39 64.85,-64.81 133.63,-126.24 204.44,-182.59 44.48,-35.43 103.57,-47.29 158.12,-31.72l328.66 94.01c137.85,-76.54 283.8,-137.05 434.51,-180.17l165.71 -298.58c27.54,-49.54 77.72,-82.97 134.25,-89.45 90.39,-10.2 182.47,-15.37 273.66,-15.37 91.2,0 183.27,5.17 273.6,15.37 56.59,6.48 106.78,39.91 134.32,89.45l165.71 298.58c150.71,43.12 296.69,103.63 434.5,180.17l328.66 -94c54.56,-15.59 113.64,-3.73 158.14,31.73 70.81,56.33 139.57,117.76 204.4,182.54 64.75,64.83 126.23,133.6 182.61,204.44 35.4,44.47 47.28,103.59 31.69,158.13l-93.97 328.5c76.34,137.39 136.8,283.37 180.14,434.6l298.58 165.77c49.6,27.52 82.96,77.72 89.45,134.3 10.2,90.39 15.37,182.44 15.37,273.61 0,91.18 -5.17,183.22 -15.37,273.6 -6.49,56.59 -39.85,106.79 -89.45,134.31l-298.51 165.73c-43.27,151 -103.8,296.96 -180.21,434.63l93.97 328.51c15.59,54.55 3.71,113.67 -31.69,158.16 -56.38,70.82 -117.86,139.6 -182.61,204.38 -64.76,64.79 -133.59,126.21 -204.4,182.6 -44.5,35.43 -103.58,47.3 -158.14,31.71l-328.51 -93.96c-137.67,76.43 -283.65,136.93 -434.65,180.2l-165.71 298.5c-27.54,49.61 -77.73,82.97 -134.25,89.45 -90.47,10.2 -182.47,15.37 -273.67,15.37z"></path> <path class="fil0" d="M2442.89 718.23c-955.19,0 -1732.29,777.11 -1732.29,1732.3 0,955.19 777.1,1732.29 1732.29,1732.29 955.15,0 1732.33,-777.1 1732.33,-1732.29 0,-955.19 -777.18,-1732.3 -1732.33,-1732.3zm0 3608.81c-501.21,0 -972.47,-195.2 -1326.9,-549.61 -354.42,-354.43 -549.62,-825.67 -549.62,-1326.9 0,-501.25 195.2,-972.48 549.62,-1326.9 354.43,-354.42 825.69,-549.61 1326.9,-549.61 501.21,0 972.48,195.19 1326.92,549.61 354.42,354.42 549.56,825.65 549.56,1326.9 0,501.23 -195.14,972.47 -549.56,1326.9 -354.44,354.41 -825.71,549.61 -1326.92,549.61z"></path> </g> <g id="_1932419350320"> <path class="fil1" d="M3470.28 2947.64c-7.53,185.73 -68.75,358.45 -167.19,515.35 -119.01,189.74 -349.57,152.55 -546.23,156.73 -234.73,5.02 -469.57,7.3 -704.31,2.74 -154.72,-3.02 -292.8,10.46 -413.04,-105.45 -110.08,-106.14 -164.15,-255.89 -207.44,-398.52 -75.41,-248.69 44.3,-611.55 205.13,-804.6 202.46,-243.06 523.22,-289.77 821.18,-292.11 290.58,3.22 576.79,76.02 792.74,284.49 173.88,167.84 228.65,408.67 219.16,641.37zm-1011.9 -990.66c-203.12,1.58 -414.1,22.5 -599.23,108.98 -78.48,-100.2 -178.35,-231.07 -94.2,-359.3 65.7,-100 178.3,-93.86 281.09,-104.74 115.67,-12.27 228.33,-20.82 344.84,-21.21 161.65,-0.46 332.28,-11.48 492.86,11.59 113.81,16.31 213.96,63.82 219.72,195.82 4.65,105.45 -72.01,185.73 -125.95,270.12 -158.73,-69.51 -325.16,-99.12 -519.13,-101.26zm-783.06 -605.61c221.58,-112.46 530.29,-66.81 773.26,-69.87 122.31,-1.54 244.87,-0.47 367.15,4.93 169.08,7.43 366.72,-9.67 500.29,112.78 110.52,101.36 140.92,275.8 131.1,419.59 -11.47,168.82 -101.39,282.91 -182.47,417.22 -10.56,-9.06 -20.87,-18.51 -31.76,-26.68 -65.41,-49.43 -130.46,-89.69 -196.33,-123.21 93.31,-146.25 235.8,-357.1 42.82,-493.56 -189.18,-133.75 -524.48,-78.57 -738.95,-76.43 -93.91,0.97 -185.32,9.39 -278.63,19.34 -92.09,9.81 -212.37,6.09 -290.06,64.43 -190.9,143.44 -80.99,348.74 29.43,495.75 -19.48,10.98 -39.05,21.81 -57.79,34.54 -48.76,33.2 -92.19,72.07 -131.01,114.79 -91.73,-139.38 -205.82,-273.31 -198.57,-449.11 7.43,-182.94 94.94,-359.99 261.52,-444.51zm1847.41 1328.09c-25.76,-143.06 -105.26,-289.46 -209.91,-397.92 84.84,-143.76 179.46,-263.84 196.65,-438.52 14.65,-148.72 -11.05,-330.6 -109.39,-449.1 -96.29,-116.15 -226.65,-152.77 -371.24,-162.68 -192.75,-13.21 -387.14,-16.83 -580.26,-14.51 -294.26,3.54 -677.21,-59.97 -918.41,152.08 -116.37,102.37 -173.22,271.23 -183.87,422.57 -13.96,198.84 122.64,348.35 223.25,506.1 -96.23,125.72 -157.75,278.3 -189.5,433.55 -44.58,217.67 -33.8,384.39 55.46,591.23 47.47,109.87 131.76,243.62 233.39,312.39 69.65,47.14 155.47,45.37 236.42,48.54 248.35,9.62 497.37,7.43 745.82,3.34 160.26,-2.65 357.29,21.1 513.97,-22.84 154.4,-43.31 232.32,-221.66 291.41,-356.39 83.54,-190.53 102.84,-424.02 66.21,-627.84z"></path> <path class="fil1" d="M2405.38 2890.54c-343.52,-13.29 -218.79,-522.34 91.22,-478.82 121.11,24.46 203.17,140.63 209.16,262.07 8.57,173 -158.71,222.18 -300.38,216.75zm108.42 -541.26c-168.95,-23.71 -325.95,73.73 -369.47,240.55 -42.3,162.44 21.48,324.52 195.18,359.39 164.48,32.96 392.24,-20.51 426.56,-208.06 30.82,-168.12 -82.86,-357.75 -252.27,-391.88z"></path> <path class="fil1" d="M1959.52 2209.75c-178.06,97.31 -305.53,259.11 -359.24,454.7 -11.07,40.26 51.46,57.46 62.48,17.25 49.38,-180.06 165.66,-326.52 329.45,-416.02 36.58,-19.99 3.95,-75.96 -32.69,-55.93z"></path> <path class="fil1" d="M1594.89 2784.96c-41.66,0 -41.75,64.81 0,64.81 41.7,0 41.75,-64.81 0,-64.81z"></path> </g> </g> </svg> 