<?xml version="1.0" encoding="UTF-8"?> <svg xmlns="http://www.w3.org/2000/svg" xmlns:xlink="http://www.w3.org/1999/xlink" xmlns:xodm="http://www.corel.com/coreldraw/odm/2003" xml:space="preserve" width="49mm" height="49mm" version="1.1" style="shape-rendering:geometricPrecision; text-rendering:geometricPrecision; image-rendering:optimizeQuality; fill-rule:evenodd; clip-rule:evenodd" viewBox="0 0 4900 4900"> <defs> <style type="text/css"> .fil0 {fill:#848688;fill-rule:nonzero} .fil1 {fill:#424242;fill-rule:nonzero} </style> </defs> <g id="Слой_x0020_1"> <metadata id="CorelCorpID_0Corel-Layer"></metadata> <g id="_1932214867152"> <path class="fil0" d="M1442.19 4140.92c10.42,0 20.96,2.65 30.58,8.16 143.06,81.87 295.95,145.31 454.53,188.53 16.17,4.41 29.87,15.15 37.95,29.78l178.32 321.2c8.08,14.57 22.94,24.4 39.7,26.3 85.73,9.68 173.07,14.56 259.6,14.56 86.54,0 173.88,-4.88 259.61,-14.56 16.76,-1.9 31.62,-11.73 39.7,-26.3l178.32 -321.2c8.08,-14.63 21.78,-25.37 37.95,-29.78 158.57,-43.22 311.47,-106.66 454.53,-188.53 17.34,-9.95 37.8,-10.63 55.14,-3.28l345.71 98.89c15.95,4.57 33.36,1.04 46.54,-9.44 67.24,-53.51 132.5,-111.8 193.98,-173.25 61.48,-61.48 119.75,-126.74 173.22,-193.93 10.49,-13.19 14.06,-30.61 9.47,-46.61l-99.29 -347.15c-6.84,-17.02 -6.04,-36.75 3.65,-53.68 81.87,-143.06 145.31,-295.98 188.58,-454.52 4.37,-16.15 15.15,-29.84 29.8,-37.98l321.15 -178.32c14.57,-8.08 24.41,-22.92 26.3,-39.67 9.69,-85.73 14.57,-173.09 14.57,-259.61 0,-86.51 -4.88,-173.85 -14.57,-259.6 -1.89,-16.76 -11.73,-31.6 -26.3,-39.68l-317.88 -176.46c-15.8,-7.55 -28.26,-21.67 -33.14,-39.66 -43.34,-158.93 -106.71,-311.91 -188.51,-454.69 -9.91,-17.38 -10.64,-37.78 -3.21,-55.16l98.85 -345.7c4.59,-15.98 1.02,-33.4 -9.47,-46.56 -53.47,-67.21 -111.74,-132.47 -173.22,-193.98 -61.48,-61.46 -126.74,-119.75 -193.98,-173.21 -13.18,-10.51 -30.59,-14.04 -46.54,-9.46l-343.23 98.17c-17.85,8.39 -39.19,8.1 -57.33,-2.28 -143.42,-82.11 -296.46,-145.62 -454.82,-188.76 -16.17,-4.4 -29.87,-15.14 -37.95,-29.78l-178.32 -321.25c-8.08,-14.57 -22.94,-24.4 -39.7,-26.3 -85.73,-9.68 -173.07,-14.56 -259.61,-14.56 -86.53,0 -173.87,4.88 -259.6,14.56 -16.76,1.9 -31.62,11.73 -39.7,26.3l-178.32 321.25c-8.08,14.64 -21.78,25.38 -37.95,29.78 -158.36,43.14 -311.4,106.65 -454.8,188.76 -18.14,10.37 -39.55,10.67 -57.39,2.28l-343.18 -98.17c-16,-4.58 -33.41,-1.04 -46.57,9.44 -67.19,53.48 -132.45,111.77 -193.97,173.26 -61.45,61.48 -119.74,126.74 -173.22,193.93 -10.5,13.18 -14.02,30.6 -9.45,46.6l99.29 347.15c6.84,17.02 6.01,36.75 -3.69,53.69 -81.76,142.78 -145.17,295.76 -188.48,454.69 -4.97,18.26 -17.7,32.57 -33.84,40.05l-317.19 176.07c-14.55,8.08 -24.38,22.92 -26.28,39.68 -9.69,85.73 -14.61,173.08 -14.61,259.6 0,86.52 4.92,173.88 14.61,259.65 1.9,16.71 11.73,31.55 26.29,39.63l321.19 178.32c14.64,8.14 25.38,21.83 29.78,37.98 43.23,158.54 106.66,311.46 188.53,454.52 9.95,17.38 10.64,37.77 3.28,55.14l-98.89 345.71c-4.57,15.98 -1.04,33.4 9.44,46.56 53.51,67.22 111.8,132.48 173.26,193.97 61.47,61.44 126.73,119.73 193.94,173.23 13.17,10.48 30.59,14.03 46.59,9.45l347.15 -99.3c7.34,-2.95 15.19,-4.47 23.1,-4.47zm1000.68 712.8c-91.19,0 -183.19,-5.17 -273.59,-15.37 -56.6,-6.48 -106.78,-39.84 -134.32,-89.45l-165.71 -298.5c-151,-43.27 -296.97,-103.77 -434.65,-180.2l-328.5 93.95c-54.55,15.59 -113.67,3.74 -158.16,-31.71 -70.83,-56.38 -139.6,-117.8 -204.39,-182.56 -64.78,-64.81 -126.2,-133.59 -182.59,-204.43 -35.44,-44.47 -47.3,-103.59 -31.72,-158.13l93.97 -328.52c-76.43,-137.67 -136.94,-283.63 -180.2,-434.63l-298.5 -165.73c-49.58,-27.52 -83.01,-77.72 -89.44,-134.28 -10.22,-90.41 -15.41,-182.45 -15.41,-273.63 0,-91.17 5.19,-183.22 15.41,-273.6 6.43,-56.59 39.86,-106.79 89.43,-134.31l298.62 -165.77c43.3,-151.23 103.79,-297.21 180.09,-434.6l-93.96 -328.5c-15.59,-54.54 -3.73,-113.66 31.72,-158.15 56.37,-70.82 117.79,-139.59 182.55,-204.39 64.85,-64.81 133.63,-126.24 204.44,-182.59 44.48,-35.43 103.57,-47.29 158.12,-31.72l328.66 94.01c137.85,-76.54 283.8,-137.05 434.51,-180.17l165.71 -298.58c27.54,-49.54 77.72,-82.97 134.25,-89.45 90.39,-10.2 182.47,-15.37 273.66,-15.37 91.2,0 183.27,5.17 273.6,15.37 56.59,6.48 106.78,39.91 134.32,89.45l165.71 298.58c150.71,43.12 296.69,103.63 434.5,180.17l328.66 -94c54.56,-15.59 113.64,-3.73 158.14,31.73 70.81,56.33 139.57,117.76 204.4,182.54 64.75,64.83 126.23,133.6 182.61,204.44 35.4,44.47 47.28,103.59 31.69,158.13l-93.97 328.5c76.34,137.39 136.8,283.37 180.14,434.6l298.58 165.77c49.6,27.52 82.96,77.72 89.45,134.3 10.2,90.39 15.37,182.44 15.37,273.61 0,91.18 -5.17,183.22 -15.37,273.6 -6.49,56.59 -39.85,106.79 -89.45,134.31l-298.51 165.73c-43.27,151 -103.8,296.96 -180.21,434.63l93.97 328.51c15.59,54.55 3.71,113.67 -31.69,158.16 -56.38,70.82 -117.86,139.6 -182.61,204.38 -64.76,64.79 -133.59,126.21 -204.4,182.6 -44.5,35.43 -103.58,47.3 -158.14,31.71l-328.51 -93.96c-137.67,76.43 -283.65,136.93 -434.65,180.2l-165.71 298.5c-27.54,49.61 -77.73,82.97 -134.25,89.45 -90.47,10.2 -182.47,15.37 -273.67,15.37z"></path> <path class="fil0" d="M2442.88 718.23c-955.19,0 -1732.29,777.11 -1732.29,1732.3 0,955.19 777.1,1732.29 1732.29,1732.29 955.15,0 1732.33,-777.1 1732.33,-1732.29 0,-955.19 -777.18,-1732.3 -1732.33,-1732.3zm0 3608.81c-501.21,0 -972.47,-195.2 -1326.9,-549.61 -354.42,-354.43 -549.62,-825.67 -549.62,-1326.9 0,-501.25 195.2,-972.48 549.62,-1326.9 354.43,-354.42 825.69,-549.61 1326.9,-549.61 501.21,0 972.48,195.19 1326.92,549.61 354.42,354.42 549.56,825.65 549.56,1326.9 0,501.23 -195.14,972.47 -549.56,1326.9 -354.44,354.41 -825.71,549.61 -1326.92,549.61z"></path> </g> <g id="_1932214867104"> <path class="fil1" d="M3728.36 2546.12c-2.61,-60.63 -5.87,-119.99 -6.51,-174.85 -0.06,-3.59 -0.19,-7.12 -0.24,-10.71 14.97,0.06 29.85,0.15 44.82,0.66 21.94,0.79 22.31,-3.86 28.82,13.21 5.17,13.43 0.09,37 0.94,51.65 1.01,18.5 3.53,36.82 4.97,55.28 1.21,14.87 1.91,29.89 1.76,44.81 -0.04,1.3 -1.25,10.52 -0.83,15.76 -2.23,0.94 -4.6,1.77 -6.6,1.77 -22.51,-0.13 -44.73,1.95 -67.13,2.42zm-72.95 168.07c-1.54,44.95 3.35,100.04 -7.96,144.31 -27.89,108.83 -95.9,102.93 -192.33,104.47 -1.35,-68.9 -7.34,-139.16 -6.42,-202.99 1.82,-120.6 2.28,-240.73 -0.09,-361.33 -2.98,-151.33 8.04,-303.92 3.53,-455.49 40.04,1.26 83.59,0.43 120.23,10.47 72.25,19.81 73.6,26.87 81.09,108.83 9.2,101.17 2.27,207.17 3.57,308.81 1.45,114.27 2.37,228.69 -1.62,342.92zm-268.86 -610.2c-2.47,98.32 -4.65,196.32 -2.76,294.66 2.76,139.47 0.85,278.43 -0.79,417.92 -1.76,153.83 45.1,352.69 -172.8,355.98 -36.36,0.56 -103.91,13.95 -138.31,-1.34 -97.55,-43.29 -79.88,-118.7 -81.46,-198.16 -2.7,-137.38 -2.83,-274.71 -1.06,-412.05 1.8,-142.83 5.39,-285.65 9.89,-428.43 4.84,-154.26 -41.42,-420.23 180.86,-418.61 132.09,1.03 182.76,44.3 204.52,183.08 10.46,66.72 3.58,139.76 1.91,206.95zm-1420.25 436.45c-0.36,-56.43 -1.02,-112.87 -1.67,-169.41 146.46,-5.67 293.78,-6.6 440.19,-8.32 170.62,-2.05 352.18,17.66 522.01,3.76 -0.7,56.44 -1.3,112.8 -1.95,169.1 -318.15,16.97 -639.78,1.02 -958.58,4.87zm-67.13 503.84c-4.65,70.34 2.65,120.55 -71.6,137.71 -40.87,9.39 -103.62,0.55 -144.58,-0.04 -78.76,-1.12 -153.52,-35.9 -175.89,-118.14 -16.17,-59.47 2.1,-148.59 1.49,-210.79 -1.44,-148.78 -3.99,-297.19 -1.07,-445.96 1.91,-98.42 -1.12,-196.38 -2.74,-294.71 -1.3,-77.83 5.25,-155.24 4.51,-233.02 -1.25,-127.85 84.71,-157.15 201.91,-157 56.82,-0.37 130.22,29.57 162.59,80.61 18.69,29.52 9.57,101.58 11.39,138.27 3.86,76.02 5.39,152.26 7.63,228.33 4.32,145.74 7.61,291.5 9.16,437.3 1.47,145.1 6.82,292.53 -2.8,437.44zm-655.03 -183.22c-12.02,-48.82 -7.26,-107.45 -9.85,-158.12 -7.07,-137.12 -10.71,-274.45 -9.66,-411.74 0.62,-80.61 -8.47,-176.99 10.53,-255.8 22.28,-92.29 111.87,-81.77 198.9,-83.68 -2.74,151.18 11.57,306.1 8.65,455.34 -3.57,183.74 -13.67,377.56 -6.13,564.28 -101.91,-1.68 -164.25,4.32 -192.44,-110.28zm-158.45 -324.98c-3.2,-28.97 0.14,-61.52 -0.18,-89.31 -0.2,-17.4 -0.65,-34.78 -0.59,-52.22 0.01,-4.47 4,-26.12 -1.68,-28.12 10.97,-2.89 35.02,-0.66 43.73,-0.88 10.49,-0.28 20.99,0.04 31.51,0.27 -1.44,56.26 -3.46,115.12 -4.47,174.49 -22.33,1.11 -47.11,-0.09 -68.32,-4.23zm2780.56 -51.15c-1.81,-24.87 -5.21,-49.51 -5.91,-74.43 -0.79,-28.49 5.26,-58.4 -12.82,-82.44 -29.35,-38.9 -82.49,-33.65 -127.07,-32.68 -1.25,-65.22 -2.65,-130.5 -2.7,-195.73 0,-44.9 15.06,-121.8 -12.37,-161.88 -44.95,-65.64 -177.13,-57.42 -256.21,-59.55 -0.75,-11.07 -0.6,-22.14 -1.54,-33.2 -14.64,-168.25 -106.09,-194.57 -267.51,-195.82 -178.3,-1.31 -224.65,61.59 -237.01,236.5 -9.77,137.95 -13.26,277 -15.3,415.92 -170.12,14.04 -352.09,-5.76 -522.99,-3.72 -146.68,1.76 -294.3,2.65 -440.98,8.37 -2.13,-137.71 -6,-275.47 -15.62,-412.2 -12.13,-173.27 -58.35,-237.81 -237.02,-236.5 -124.59,-0.19 -252.49,11.94 -268.62,153.88 -2.85,24.97 -4.84,50.07 -6.24,75.32 -77.87,1.53 -199.46,-5.16 -244.73,52.11 -57.79,73.09 -31.13,267 -31.77,352.32 -0.01,2.93 -0.13,6.09 -0.16,9.02 -35.21,-1.77 -77.58,-4.27 -106.33,7.96 -52.44,22.22 -32.94,111.39 -32.44,156.02 0.52,46.26 -16.12,120.14 41.81,132.41 29.01,6.14 59.99,7.34 90.62,6.37 0.13,108.75 6.41,216.88 30.47,312.19 30.18,119.29 144.67,118.74 256.12,120.97 1.01,15.39 1.07,31.15 2.36,46.36 13.26,151 95.91,160.95 229.49,163.18 85.03,1.45 218.97,31.25 268.54,-54.2 29.24,-50.45 23.1,-138.13 24.92,-194.34 3.86,-120.89 2.83,-241.99 1.8,-362.97 -0.09,-9.62 -0.13,-19.29 -0.22,-28.95 318.43,-3.83 639.69,12.08 957.45,-4.84 -1.15,108.09 -1.54,216.19 0.43,324.28 1.25,69.92 -10.43,158.82 12.12,225.53 38.55,113.99 172.72,88.7 273.38,87.18 113.67,-1.73 208.19,5.66 234.88,-125.49 5.44,-26.88 8.27,-55.18 9.58,-84.15 105.86,-2.04 221.99,-2.37 252.27,-116.61 23.98,-90.51 26.45,-194.56 23.71,-297.83 35.84,2.01 77.17,0.19 105.9,-14.31 40.45,-20.5 32.5,-75.68 29.71,-114.05z"></path> <path class="fil1" d="M1575.63 1878.82c-30.86,73.87 -21.24,167.23 -11.75,244.68 4.96,40.87 69.82,41.38 64.76,0 -8.79,-72.01 -19.26,-158.82 9.47,-227.48 16.05,-38.4 -46.62,-55.19 -62.48,-17.2z"></path> <path class="fil1" d="M1665.09 1782.86c-41.71,0 -41.75,64.76 0,64.76 41.7,0 41.75,-64.76 0,-64.76z"></path> <path class="fil1" d="M3077.89 1849.11c-22.7,30.64 -25.2,77.78 -29.21,114.14 -5.06,46.12 -7.89,93.49 -3.99,139.8 3.48,41.24 68.29,41.61 64.81,0 -3.25,-38.59 -1.45,-77.78 1.72,-116.28 2.65,-31.85 2.74,-78.11 22.6,-104.93 24.81,-33.56 -31.39,-65.88 -55.93,-32.73z"></path> <path class="fil1" d="M3170.03 1766.26c-41.71,0 -41.75,64.8 0,64.8 41.7,0 41.75,-64.8 0,-64.8z"></path> </g> </g> </svg> 